<svg width="139" height="140" viewBox="0 0 139 140" fill="none" xmlns="http://www.w3.org/2000/svg">
<path d="M39.665 132.813C-10.335 104.813 1.88843 82.5 3.38879 66.5C3.38879 56.9 26.8315 11.9793 35.6648 5.31264C41.1648 1.14598 58.8647 -3.68736 85.6647 10.3126C146.865 35.9126 141.498 79.3126 131.165 97.8126C123.665 118.479 94.8648 154.413 39.665 132.813Z" fill="#00C1FE" stroke="#00C1FE" stroke-linecap="round" stroke-linejoin="round"/>
<path d="M43.8584 70.28C42.4818 70.28 41.1401 70.0233 39.8334 69.51C38.5268 68.9967 37.5118 68.3783 36.7884 67.655L39.4134 63.595C39.8334 64.1083 40.4284 64.54 41.1984 64.89C41.9918 65.2167 42.7501 65.38 43.4734 65.38C44.0101 65.38 44.5118 65.2633 44.9784 65.03C45.4451 64.7967 45.8184 64.4467 46.0984 63.98C46.3784 63.5133 46.5184 62.9417 46.5184 62.265C46.5184 61.5183 46.3668 60.865 46.0634 60.305C45.7834 59.745 45.3634 59.3133 44.8034 59.01C44.2668 58.6833 43.6251 58.52 42.8784 58.52C42.1551 58.52 41.4668 58.625 40.8134 58.835C40.1601 59.0217 39.3901 59.3483 38.5034 59.815H38.4684V46.795H50.0534V51.695H42.8434V55.44L42.2484 54.39C42.5751 54.3433 42.8901 54.3083 43.1934 54.285C43.4968 54.2617 43.8001 54.25 44.1034 54.25C45.7368 54.25 47.1134 54.6117 48.2334 55.335C49.3768 56.0583 50.2518 57.015 50.8584 58.205C51.4651 59.395 51.7684 60.69 51.7684 62.09C51.7684 63.63 51.4184 65.0183 50.7184 66.255C50.0184 67.4917 49.0618 68.4717 47.8484 69.195C46.6584 69.9183 45.3284 70.28 43.8584 70.28ZM64.4937 70.035C63.1637 70.035 61.9037 69.8017 60.7137 69.335C59.547 68.8683 58.5087 68.1567 57.5987 67.2C56.712 66.22 56.012 64.995 55.4987 63.525C54.9853 62.0317 54.7287 60.2817 54.7287 58.275C54.7287 56.035 54.9737 54.1683 55.4637 52.675C55.9537 51.1583 56.6303 49.945 57.4937 49.035C58.3803 48.125 59.4187 47.4833 60.6087 47.11C61.7987 46.7133 63.0937 46.515 64.4937 46.515C65.8237 46.515 67.072 46.7483 68.2387 47.215C69.4287 47.6817 70.467 48.405 71.3537 49.385C72.2637 50.3417 72.9753 51.5667 73.4887 53.06C74.002 54.53 74.2587 56.2683 74.2587 58.275C74.2587 60.3517 74.002 62.1367 73.4887 63.63C72.9753 65.1233 72.2637 66.3483 71.3537 67.305C70.4437 68.2383 69.4053 68.9267 68.2387 69.37C67.072 69.8133 65.8237 70.035 64.4937 70.035ZM64.4587 65.17C65.6253 65.17 66.5353 64.8667 67.1887 64.26C67.842 63.63 68.297 62.7783 68.5537 61.705C68.8337 60.6317 68.9737 59.4417 68.9737 58.135C68.9737 56.8517 68.8337 55.7083 68.5537 54.705C68.297 53.7017 67.842 52.9083 67.1887 52.325C66.5353 51.7183 65.6253 51.415 64.4587 51.415C63.3153 51.415 62.417 51.7183 61.7637 52.325C61.1103 52.9317 60.6553 53.7483 60.3987 54.775C60.142 55.8017 60.0137 56.9567 60.0137 58.24C60.0137 59.5233 60.142 60.69 60.3987 61.74C60.6553 62.79 61.1103 63.63 61.7637 64.26C62.417 64.8667 63.3153 65.17 64.4587 65.17ZM82.3412 59.71C81.0579 59.71 79.9962 59.4183 79.1562 58.835C78.3162 58.2517 77.6979 57.4583 77.3012 56.455C76.9045 55.4517 76.7062 54.32 76.7062 53.06C76.7062 51.8 76.9045 50.68 77.3012 49.7C77.6979 48.6967 78.3162 47.9033 79.1562 47.32C79.9962 46.7367 81.0579 46.445 82.3412 46.445C83.6245 46.445 84.6745 46.7367 85.4912 47.32C86.3312 47.9033 86.9495 48.6967 87.3462 49.7C87.7662 50.68 87.9762 51.8 87.9762 53.06C87.9762 54.32 87.7662 55.4517 87.3462 56.455C86.9495 57.4583 86.3312 58.2517 85.4912 58.835C84.6745 59.4183 83.6245 59.71 82.3412 59.71ZM80.9762 53.06C80.9762 54.0167 81.0695 54.7983 81.2562 55.405C81.4429 55.9883 81.8045 56.28 82.3412 56.28C82.8779 56.28 83.2279 55.9883 83.3912 55.405C83.5779 54.7983 83.6712 54.0167 83.6712 53.06C83.6712 51.9633 83.5779 51.17 83.3912 50.68C83.2279 50.1667 82.8779 49.91 82.3412 49.91C81.8045 49.91 81.4429 50.1667 81.2562 50.68C81.0695 51.17 80.9762 51.9633 80.9762 53.06ZM96.9712 70.98C95.6879 70.98 94.6262 70.6883 93.7862 70.105C92.9462 69.5217 92.3279 68.7283 91.9312 67.725C91.5345 66.7217 91.3362 65.59 91.3362 64.33C91.3362 63.07 91.5345 61.95 91.9312 60.97C92.3279 59.9667 92.9462 59.1733 93.7862 58.59C94.6262 58.0067 95.6879 57.715 96.9712 57.715C98.2545 57.715 99.3045 58.0067 100.121 58.59C100.961 59.1733 101.58 59.9667 101.976 60.97C102.396 61.95 102.606 63.07 102.606 64.33C102.606 65.59 102.396 66.7217 101.976 67.725C101.58 68.7283 100.961 69.5217 100.121 70.105C99.3045 70.6883 98.2545 70.98 96.9712 70.98ZM95.6062 64.33C95.6062 65.2867 95.6995 66.0683 95.8862 66.675C96.0729 67.2583 96.4345 67.55 96.9712 67.55C97.5079 67.55 97.8579 67.2583 98.0212 66.675C98.2079 66.0683 98.3012 65.2867 98.3012 64.33C98.3012 63.2333 98.2079 62.44 98.0212 61.95C97.8579 61.4367 97.5079 61.18 96.9712 61.18C96.4345 61.18 96.0729 61.4367 95.8862 61.95C95.6995 62.44 95.6062 63.2333 95.6062 64.33ZM100.961 46.445L83.9512 70.07L79.1562 70L96.0962 46.445H100.961ZM48.1003 99.16C48.1003 97.5967 48.4619 96.1967 49.1853 94.96C49.9319 93.7233 50.9703 92.755 52.3003 92.055C53.6303 91.3317 55.1586 90.97 56.8853 90.97C58.6353 90.97 60.1519 91.3317 61.4353 92.055C62.7186 92.755 63.6986 93.7233 64.3753 94.96C65.0753 96.1967 65.4253 97.5967 65.4253 99.16C65.4253 100.723 65.0753 102.135 64.3753 103.395C63.6986 104.632 62.7186 105.612 61.4353 106.335C60.1519 107.058 58.6119 107.42 56.8153 107.42C55.1353 107.42 53.6303 107.093 52.3003 106.44C50.9936 105.787 49.9669 104.842 49.2203 103.605C48.4736 102.368 48.1003 100.887 48.1003 99.16ZM53.0353 99.195C53.0353 99.9883 53.1986 100.712 53.5253 101.365C53.8519 101.995 54.2953 102.497 54.8553 102.87C55.4153 103.243 56.0453 103.43 56.7453 103.43C57.5153 103.43 58.1803 103.243 58.7403 102.87C59.3003 102.497 59.7319 101.995 60.0353 101.365C60.3386 100.712 60.4903 99.9883 60.4903 99.195C60.4903 98.3783 60.3386 97.655 60.0353 97.025C59.7319 96.395 59.3003 95.8933 58.7403 95.52C58.1803 95.1467 57.5153 94.96 56.7453 94.96C56.0453 94.96 55.4153 95.1467 54.8553 95.52C54.2953 95.8933 53.8519 96.395 53.5253 97.025C53.1986 97.655 53.0353 98.3783 53.0353 99.195ZM70.7554 107V95.975H68.1654V91.635H70.7554V86.315C70.7554 84.3083 71.327 82.675 72.4704 81.415C73.637 80.1317 75.317 79.49 77.5104 79.49C78.1637 79.49 78.887 79.595 79.6804 79.805C80.497 79.9917 81.2087 80.3067 81.8154 80.75L79.7504 84.285C79.517 83.9817 79.237 83.7833 78.9104 83.69C78.607 83.5733 78.3154 83.515 78.0354 83.515C77.3354 83.515 76.7637 83.7483 76.3204 84.215C75.877 84.6817 75.6554 85.4283 75.6554 86.455V91.635H80.2754V95.975H75.6554V107H70.7554ZM82.0604 107V95.975H79.4704V91.635H82.0604V86.315C82.0604 84.3083 82.632 82.675 83.7754 81.415C84.942 80.1317 86.622 79.49 88.8154 79.49C89.4687 79.49 90.192 79.595 90.9854 79.805C91.802 79.9917 92.5137 80.3067 93.1204 80.75L91.0554 84.285C90.822 83.9817 90.542 83.7833 90.2154 83.69C89.912 83.5733 89.6204 83.515 89.3404 83.515C88.6404 83.515 88.0687 83.7483 87.6254 84.215C87.182 84.6817 86.9604 85.4283 86.9604 86.455V91.635H91.5804V95.975H86.9604V107H82.0604Z" fill="white"/>
</svg>
